<svg id="Layer_1" data-name="Layer 1" xmlns="http://www.w3.org/2000/svg" viewBox="0 0 522.91 585.1"><defs><style>.cls-1{fill:#aebd46;}.cls-2{font-size:266.9px;fill:#424143;font-family:HoboStd, Hobo Std;}</style></defs><path class="cls-1" d="M584.86,515.78c6.79,7.11,5.49,19.59-2.91,27.85l-45.62,44.93c-8.4,8.27-20.71,9.21-27.49,2.1L287.67,359c-6.79-7.1-5.48-19.57,2.92-27.84l45.62-44.93c8.4-8.26,20.7-9.21,27.49-2.1Z" transform="translate(-244 -97.98)"/><path class="cls-1" d="M759.81,338.51c8.14,8.53,9.48,20.63,3,27l-141.2,139c-6.5,6.4-18.37,4.68-26.51-3.85L550.84,454.4c-8.14-8.53-9.47-20.63-3-27L689.08,288.32c6.49-6.4,18.34-4.68,26.5,3.85Z" transform="translate(-244 -97.98)"/><text class="cls-2" transform="matrix(0.71, -0.7, 0.69, 0.72, 273.86, 322.92)">M</text><text x="-244" y="-97.98"/></svg>